<?xml version="1.0" encoding="UTF-8"?>
<svg id="Ebene_1" xmlns="http://www.w3.org/2000/svg" version="1.1" viewBox="0 0 209.28 541.57">
  <!-- Generator: Adobe Illustrator 30.2.1, SVG Export Plug-In . SVG Version: 2.1.1 Build 1)  -->
  <defs>
    <style>
      .st0 {
        fill: #9caf10;
      }

      .st1 {
        fill: #e30613;
      }
    </style>
  </defs>
  <path class="st0" d="M71.29,541.57c-2.85-.59-5.73-1.08-8.54-1.82-2.95-.77-5.99-1.37-8.58-3.13-1.65-1.12-3.21-2.38-4.9-3.43-5.19-3.18-9.45-7.36-13.31-12-3.69-4.43-6.3-9.45-8.09-14.91-.17-.52-.28-1.08-.51-1.58-1.44-3.01-1.49-6.3-1.97-9.51-.71-4.76-.11-9.46.72-14.13.52-2.93,2.13-5.41,4.05-7.66.5-.59,1.04-1.16,1.53-1.77,1.44-1.78,3.11-3.22,5.16-4.3,1.23-.64,2.24-1.7,3.37-2.52,2.23-1.62,4.91-2,7.49-2.57,6.69-1.47,13.04-.29,18.43,3.81,5.87,4.46,10.38,10.14,11.89,17.65,1.13,5.61.15,10.96-2.3,16.08-2.14,4.49-5.16,8.34-9.14,11.27-3.27,2.41-6.8,4.36-11.17,4.29-1.9-.03-3.8.17-5.72-.05-1.83-.22-2.58.65-2.71,2.51-.13,1.79.87,2.82,1.97,4.08,2.5,2.87,5.8,4.46,8.98,6.21,3.36,1.84,7.08,2.89,10.92,2.96,4.18.07,8.4.07,12.53-.47,5.82-.75,11.02-3.3,15.58-6.98,1.89-1.53,3.49-3.42,5.21-5.16.65-.65,1.32-1.3,1.9-2.02,1.49-1.83,3-3.65,4.37-5.56.85-1.19,1.55-2.51,2.15-3.85,1.39-3.1,2.62-6.27,4-9.37,2.05-4.61,3.05-9.38,2.79-14.45-.23-4.56-.29-9.13-.39-13.7-.24-10.06-.47-20.12-.71-30.18-.04-1.74-.16-3.48-.25-5.34-.96-.09-1.94-.23-2.92-.27-3.01-.1-6.01-.24-9.02-.21-8.23.09-16.08-1.75-23.62-4.84-4.64-1.91-9.03-4.45-13.64-6.44-5.29-2.27-9.92-5.61-14.6-8.82-6.23-4.27-11.78-9.43-16.64-15.18-3.25-3.85-6.93-7.46-9.09-12.14-1.26-2.74-2.36-5.55-3.54-8.33-.14-.34-.21-.73-.43-1.02-2.73-3.63-3.51-7.99-4.62-12.23-.57-2.17-1.21-4.33-1.88-6.48-1.12-3.59-1.67-7.28-1.96-11-.34-4.33-.72-8.66-.65-12.99.07-4.47.61-8.94,1.03-13.4.25-2.69.44-5.41,1.07-8.02.79-3.29,2-6.48,3.04-9.7,2.56-7.96,6.94-15.02,11.23-22.1,2.62-4.33,5.59-8.47,8.62-12.53,2.75-3.68,5.73-7.19,8.71-10.68,4.51-5.3,9.52-10.09,15.07-14.29.5-.38.97-.81,1.43-1.23,2.95-2.7,5.87-5.43,8.86-8.08,1.08-.95,2.38-1.65,3.48-2.58,2.71-2.29,5.3-4.72,8.04-6.97,3.1-2.54,6.29-4.96,9.46-7.4,3.35-2.57,6.71-5.11,10.1-7.63,1.04-.77,2.16-1.42,3.57-1.27.63.07.92.27.93.95.06,3.45.24,6.91.19,10.36,0,.84-3.18,19.94-2.78,22.23.17,1.01.13,2.06.15,3.09.09,5.14-.72,10.18-1.52,15.23-.15.97-.54,1.71-1.29,2.35-2.44,2.11-4.74,4.38-7.69,5.82-.16.08-.32.19-.46.31-4.3,3.52-8.56,7.08-12.9,10.55-3.39,2.71-6.92,5.23-10.29,7.96-4.64,3.75-9.44,7.37-13.33,11.94-1.98,2.33-3.54,5.02-5.28,7.56-.69,1-1.3,2.07-2.06,3.02-3.11,3.87-4.76,8.47-6.68,12.97-1.82,4.27-3,8.72-4.08,13.2-.65,2.71-.87,5.56-1,8.36-.28,6.23-.57,12.46-.51,18.69.04,4.89.93,9.69,2.88,14.25,1.23,2.88,2.17,5.89,3.49,8.72,2.47,5.31,5.91,10.05,9.06,14.97,2.57,4.01,5.71,7.53,9.25,10.62,2.98,2.61,6.03,5.26,10,6.42.84.25,1.65.64,2.44,1.04,5.06,2.56,10.32,4.59,15.92,5.53,2.76.46,5.59.62,8.39.72,3.34.12,6.69.07,10.03.01,1.84-.03,3.69-.22,5.63-.34.02-.43.05-.82.05-1.22-.02-3.71-.04-7.43-.04-11.14,0-.29.12-.69.33-.85,1.71-1.28,3.44-2.52,5.27-3.83.08.53.24,1.16.26,1.79.15,4.08.27,8.16.41,12.24,0,.1.05.21.15.62,1.86-.24,3.74-.48,5.62-.71,1.5-.19,3.03-.28,4.5-.62,1.27-.3,2.54-.75,3.68-1.39,4.08-2.27,7.63-5.27,10.84-8.62,2.07-2.17,3.75-4.69,5.77-6.91,2.81-3.08,4.95-6.57,6.42-10.43.75-1.98.99-4.15,1.55-6.21,1.51-5.62,1.09-11.35.85-17.02-.28-6.37-1.87-12.48-5.31-17.98-.1-.16-.17-.34-.29-.47-4.13-4.15-8.2-8.32-13.91-10.43-3.73-1.38-7.26-3.27-10.94-4.78-1.55-.64-3.26-.93-4.91-1.31-1.31-.3-2.07-.9-2.53-2.33-.9-2.87-1.17-5.77-1.29-8.74-.17-4.19-.52-8.37-.79-12.55-.2-3.22-.38-6.44-.58-9.78.8-.09,1.52-.23,2.24-.25,3.47-.06,6.88.45,10.11,1.63,4.26,1.54,8.49,3.21,12.59,5.12,2.77,1.29,5.41,2.92,7.91,4.69,4.66,3.28,8.82,7.17,12.24,11.73,3.81,5.09,7.74,10.17,10.09,16.15,2.05,5.23,3.76,10.6,4.52,16.17.54,3.92.64,7.91.7,11.87.02,1.8-.49,3.6-.85,5.38-.54,2.71-1.15,5.42-1.76,8.11-.96,4.29-2.95,8.17-4.87,12.08-2.12,4.32-4.58,8.37-7.71,12.1-3.65,4.35-7.73,8.2-11.92,11.96-1.75,1.57-3.86,2.74-5.74,4.19-2.98,2.3-6.41,3.7-9.89,4.89-4.07,1.4-8.25,2.47-12.41,3.6-2.67.72-2.24.77-2.47,3.08-.18,1.86.07,3.77.18,5.65.12,2.3.32,4.59.43,6.88.38,8.38.88,16.75,1.06,25.12.16,7.96.4,15.98-1.73,23.76-1.95,7.11-4.83,13.85-8.53,20.27-1.91,3.32-3.97,6.51-6.31,9.52-1.24,1.59-2.72,3.06-4.31,4.31-6.08,4.79-12.47,9.03-20.21,10.7-1.36.29-2.72.55-4.08.82h-8.69l-.04.04Z"/>
  <path class="st1" d="M139.93,0c1.01,1.12,1.99,2.27,3.04,3.36.83.86,1.44,1.84,1.39,3.02-.11,2.2.93,3.91,2.34,5.32,1.61,1.61,3.39,3.09,5.25,4.4,2.24,1.57,4,3.49,5.35,5.83.24.42.42.88.72,1.25,2.66,3.25,3.52,7.16,4.21,11.15.64,3.69.58,7.36,0,11.05-.28,1.8-1.24,3.1-2.8,4.04-.37.22-.65.77-.76,1.23-.3,1.29-.41,2.63-.76,3.91-.22.79-.66,1.55-1.14,2.23-.71,1.01-1.54,1.95-2.32,2.92-.16.2-.37.41-.41.65-.22,1.17-.63,2.06-2.01,2.29-1.77.29-3.16-.1-4.26-1.6-1.5-2.07-1.93-4.52-2.5-6.91-.52-2.18-.8-4.42-1.39-6.58-.78-2.83-1.21-5.67-1.37-8.62-.13-2.43-.48-4.97-2.15-6.97-1.3-1.57-2.72-3.04-4.12-4.52-1.06-1.11-2.53-1.4-3.94-1.56-1.97-.22-3.98-.23-5.97-.23-.59,0-1.25.25-1.76.57-1.42.9-2.78.87-3.81-.54-1.36-1.88-2.73-3.81-3.65-5.92-.87-2-.87-4.08.58-6.17,2.57-3.69,5.7-6.66,9.56-8.92.73-.43,1.32-1.07,2.01-1.58,1.18-.88,2.36-1.77,3.59-2.58.37-.24.9-.25,1.37-.3.93-.1,1.86-.16,2.79-.23h2.92Z"/>
  <path class="st1" d="M114.95,135.51c-2.89,0-5.63.08-8.37-.02-3.1-.11-5.39-1.55-7.03-4.28-2.11-3.5-3.97-7.1-5.24-10.97-1.29-3.92-2.35-7.92-3.66-11.83-1.05-3.14-2.33-6.2-3.48-9.3-.3-.83-.42-1.72-.75-2.53-.46-1.16-.86-2.39-1.58-3.38-2.04-2.8-4.46-5.21-7.27-7.3-3.08-2.29-5.91-4.91-8.94-7.28-1.83-1.43-3.84-2.64-5.75-3.98-.51-.36-1.01-.76-1.41-1.24-1.4-1.65-.94-3.61.86-4.65,1.58-.91,3.16-1.78,4.37-3.18.22-.25.6-.39.94-.51.87-.31,1.77-.54,2.62-.88,1.18-.48,2.36-.69,3.66-.63,1.89.09,3.64-.54,5.14-1.74.27-.22.45-.58.61-.9,1-1.94,1.95-3.9,2.99-5.82.82-1.5,3.88-2.72,5.49-2.29.14.04.35,0,.43.09,2.41,2.57,6.08,2.82,8.82,4.77,1.7,1.21,3.62,1.94,5.51,2.78,3.36,1.48,6.59,3.23,9.96,4.69,3.38,1.47,6.8,2.86,10.28,4.03,2.05.69,4.04.06,6.02-.99,1.51-.8,3.41-.82,5.1-1.32,1.72-.5,3.37-1.24,5.1-1.71,2.84-.77,5.77-1.74,8.35.68,1.93,1.81,4.18,3.51,4.59,6.31.34,2.29.25,4.66.23,6.99-.02,1.7-.22,3.39-.35,5.09-.15,1.88-.21,3.78-.52,5.63-.15.91-.67,1.83-1.25,2.57-2.63,3.31-4.89,6.84-6.85,10.59-.71,1.36-1.89,2.47-2.75,3.76-2.36,3.54-4.61,7.16-7.02,10.67-1.32,1.92-2.9,3.65-4.33,5.49-1.75,2.24-3.6,4.42-5.17,6.79-1.35,2.04-3.13,3.63-5.1,4.88-1.18.74-2.88.65-4.24.92"/>
  <path class="st1" d="M41.15,76.92c4.02.13,8.05.13,12.06.43,2.35.17,4.6.88,6.69,2.14,1.38.83,2.99,1.26,4.48,1.88.41.17.9.31,1.16.62,1.11,1.31,2.74,1.87,4.01,2.88,3.37,2.71,7.08,5.11,9.64,8.69,1.1,1.54,1.75,3.4,2.55,5.14,1.04,2.25,2.08,4.49,3.02,6.78.86,2.08,1.6,4.21,2.39,6.31,2.37,6.29,4.72,12.57,7.1,18.85.85,2.24,2.25,4.01,4.31,5.33,2.6,1.66,2.74,3.44,1.11,6.09-1.71,2.76-4.06,4.78-6.98,5.86-2.9,1.07-6,1.49-9.17,1.03-1.52-.22-3.11.07-4.65-.08-3.23-.31-6.43-.81-9.45-2.15-1.54-.68-3.18-1.19-4.82-1.58-2.68-.64-4.74-2.31-6.97-3.75-2.75-1.78-4.79-4.12-6.46-6.89-.99-1.64-2.18-3.17-3.42-4.64-2.39-2.84-3.92-6.19-5.61-9.43-.98-1.88-2.24-3.44-3.55-5.03-.76-.92-1.44-2-1.82-3.12-.97-2.82-1.76-5.71-2.58-8.58-.2-.7-.29-1.46-.32-2.19-.11-3.21-.12-6.43-.3-9.64-.08-1.46-.45-2.9-.73-4.34-.38-1.95-.9-3.88-1.2-5.84-.32-2.15,2.13-4.04,3.87-4.32.94-.15,1.9-.18,2.85-.22.93-.03,1.85,0,2.78,0v-.21"/>
  <path class="st1" d="M43.5,73.26c-5.93.25-11.85.44-17.77.79-2.39.14-4.76.79-7.15.91-2.39.12-4.58.53-6.73,1.69-2,1.08-4.35.97-6.57,1.13-2.5.17-5.35-2.75-5.28-5.54.1-3.81.31-7.62.7-11.41.12-1.18.98-2.28,1.46-3.44,1.29-3.13,2.49-6.3,3.85-9.4,1.25-2.83,2.42-5.76,4.11-8.33,1.69-2.58,3.97-4.78,6.01-7.12.25-.29.68-.42,1.01-.65.6-.41,1.31-.73,1.77-1.26,1.53-1.78,3.57-2.29,5.73-2.51,4.64-.47,8.89.94,13.09,2.71,2.55,1.07,5.2,1.89,7.78,2.89,1.34.52,2.68,1.08,3.91,1.81,3.55,2.11,7.23,4.05,10.48,6.56,2.32,1.79,4.77,3.66,6.25,6.37.12.23.34.45.35.68.09,2.21.54,4.47-.33,6.6-.84,2.06-1.34,4.31-3.19,5.87-.43.36-.57,1.09-.82,1.67-.73,1.76-1.68,3.32-3.35,4.38-1.36.87-2.61,1.9-3.94,2.8-2.99,2.03-6.24,3.16-9.9,2.9-.48-.04-.96,0-1.45,0v-.08"/>
  <path class="st0" d="M100.91,302.48c.4,3.05.72,5.81,1.13,8.55.6,4.1,1.24,8.18,1.89,12.27.68,4.31,1.4,8.61,2.11,12.92.11.69-.12,1.08-.8,1.34-3.13,1.21-6.25,2.43-9.35,3.71-3.21,1.32-6.2,3.03-8.67,5.49-1.2,1.19-2.28,2.54-3.2,3.97-2,3.09-4.39,5.94-5.65,9.5-1.1,3.1-1.6,6.28-1.96,9.52-.43,3.87-.22,7.73.5,11.51.42,2.19,1.16,4.37,2.07,6.41,1.09,2.42,2.29,4.85,3.85,6.97,1.88,2.55,4.21,4.77,6.3,7.17.78.88,1.62,1.79,2.11,2.83.31.67.13,1.65-.04,2.44-.62,2.93-2.83,2.98-5.2,1.7-2.97-1.61-5.51-3.8-7.81-6.21-4.68-4.89-8.74-10.3-11.95-16.26-1.7-3.17-2.8-6.67-4.1-10.04-1.78-4.6-2.56-9.39-2.68-14.31-.06-2.34-.27-4.68-.19-7.01.19-5.18.55-10.36,1.88-15.4.52-1.97,1.35-3.93,2.37-5.7,2.05-3.55,4.23-7.04,6.53-10.44,2.12-3.14,5.08-5.54,7.84-8.1.05-.05.12-.09.17-.15,2.44-3.07,6.01-4.61,9.07-6.84,3.22-2.34,6.92-3.45,10.44-5.04.98-.44,2.11-.52,3.34-.8"/>
  <path class="st0" d="M173.63,133.65c.13.63.37,1.23.36,1.83-.03,2.82-.19,5.64-.18,8.46.02,4.76-.17,9.52-1.41,14.11-1.06,3.93-2.2,7.87-3.79,11.65-.73,1.72-1.17,3.57-1.69,5.38-.55,1.89-1.21,3.69-2.34,5.34-.47.69-.52,1.67-.83,2.49-.3.78-.55,1.65-1.08,2.25-1.9,2.19-2.24,5.03-3.36,7.53-1.82,4.08-3.74,8.11-5.65,12.15-1.08,2.3-2.17,4.61-3.32,6.87-.5.97-1.04,1.99-1.78,2.76-1.08,1.12-1.8,2.4-2.4,3.81-1.39,3.3-5.72,5.65-9.24,5.13-.64-.1-1.32,0-1.98.05-1.9.1-3.81.23-5.71.29-.87.03-1.34-.59-1.51-1.36-.16-.72-.28-1.46-.29-2.19-.03-2.86-.15-5.72.02-8.57.15-2.46.63-4.91.98-7.36.14-.95.24-1.91.48-2.84.68-2.65,2.22-4.86,3.68-7.11,1.06-1.65,2-3.37,3.06-5.01.96-1.48,1.99-2.91,3.02-4.34,1.18-1.64,2.44-3.23,3.57-4.9,1.23-1.8,2.35-3.67,3.52-5.51,2.45-3.87,4.96-7.7,7.35-11.61,3.02-4.94,5.87-9.99,8.92-14.91,1.87-3.02,3.98-5.89,5.98-8.83.02-.03.04-.07.07-.09,2.3-.99,2.96-3.52,4.72-5.01.11-.1.21-.21.33-.3.05-.04.13-.05.48-.16"/>
  <path class="st0" d="M134.18,179.36c-1.87-.16-3.9.32-5.5-1.23-1.67-1.62-3.37-3.23-4.9-4.98-.96-1.09-2.1-.66-3.07-.52-.57.09-1.37,1.06-1.43,1.69-.23,2.47-.23,4.96-.24,7.44,0,1.07.24,2.14.27,3.21.14,4.63.39,9.26.34,13.89-.1,9.39-.44,18.77-.52,28.16-.03,3.53-.26,6.97-.88,10.47-.68,3.81-1.34,7.63-2.08,11.44-.95,4.86-1.75,9.74-2.48,14.64-.83,5.57-1.32,11.15-1.25,16.82.08,6.82-.37,13.64-.55,20.46-.19,6.82-.44,13.64-.43,20.47,0,3.1.58,6.19.91,9.28.47,4.41,1.09,8.82,1.42,13.24.42,5.59,1.47,11.05,2.96,16.44.2.74.55,1.45.89,2.14,1.11,2.33.82,3.79-1.01,5.62-.44.44-.59,1.17-.99,1.68-.29.37-.71.78-1.14.88-.63.15-1.41.17-1.51-.8-.17-1.58-.4-3.17-.41-4.75-.02-2.71.14-5.42.17-8.13.03-2.74.2-5.5-.04-8.22-.41-4.68-1.1-9.34-1.66-14-.49-4.16-1.17-8.3-1.38-12.47-.39-7.86-.49-15.73-.73-23.59-.02-.5-.17-1.01-.29-1.51-.41-1.67-.55-16.27-.38-18.29.3-3.58.39-7.19.72-10.77.28-3.02.81-6.01,1.19-9.02.2-1.58.28-3.17.48-4.75.24-1.98.66-3.94.78-5.93.17-2.74.16-5.49.19-8.24.02-2.04,1.02-15.81,1.54-17.77.33-1.24.63-2.54.63-3.81-.02-9.14-.09-18.27-.21-27.41-.04-2.93,0-5.9-.49-8.77-.4-2.4-1.4-4.72-2.35-6.99-.64-1.52-1.58-2.93-2.51-4.31-1.37-2.05-.4-3.52,1.04-4.74,1.81-1.54,3.46-3.28,5.66-4.38,1.56-.78,1.55-2.6.3-3.81-1.51-1.47-2.94-3.03-4.43-4.53-.91-.92-1.82-1.85-2.81-2.67-1.53-1.26-1.67-2.09,0-3.14,1.91-1.2,3.85-2.44,6.32-2.3,2.3.12,4.6,0,6.91.05.71.02,1.51.17,2.1.53,3.08,1.89,5.72,4.34,8.11,7.03,2.06,2.32,2.72,5.12,2,8.17-.45,1.9-.95,3.79-1.47,5.67-.78,2.8-1.03,5.63-.03,8.39.49,1.35,1.42,2.55,2.25,4"/>
  <path class="st1" d="M93.48,31.88c.8,0,1.33-.06,1.84,0,1.69.23,2.33.72,2.8,2.05,1.56,4.36,4.03,8.22,7.05,11.68,1.95,2.23,4.78,3.27,7.42,4.55,2.06.99,4.02,2.17,6.04,3.24.9.48,1.81.98,2.77,1.33,2.07.74,4.15,1.5,6.28,2.02,1.96.48,3.99.66,5.99,1,1.29.22,2.22.92,2.71,2.18.27.69.18,1.29-.43,1.65-1.69.98-3.35,2.11-5.17,2.75-2.1.74-4.35,1.13-6.57,1.49-3.32.53-6.45-.02-9.35-1.86-4.52-2.87-9.07-5.72-13.66-8.48-1.48-.89-3.15-1.44-4.71-2.22-1.51-.76-3.04-1.52-4.45-2.45-2.23-1.48-5.28-1.07-7.07.69-2.58,2.53-5.26,4.88-8.42,6.66-1.35.76-2.78,1.29-4.16.32-1.49-1.05-1.34-2.75-1.05-4.29.4-2.05,1.27-3.92,2.69-5.5,2-2.24,3.84-4.64,6.01-6.7,2.22-2.1,4.78-3.83,7.15-5.77.77-.63,1.52-1.31,2.12-2.09,1.14-1.47,2.28-2.79,4.13-2.26"/>
  <path class="st1" d="M61.54,33.22c-.12-2.29-.15-4.59-.39-6.87-.31-2.99-2.25-5.25-3.65-7.76-.35-.63-.63-1.49-.49-2.15.34-1.61.69-3.31,1.5-4.71,1.07-1.84,3.05-2.87,5.14-2.75,2.91.17,5.74-.29,8.6-.54.5-.04,1.02-.21,1.45-.46,2.72-1.56,5.65-2.29,8.76-2.42,1.25-.05,2.5-.16,3.74-.22,2.48-.12,4.83.46,7.02,1.57,1.48.75,2.79,1.69,2.63,3.71-.12,1.54-.8,2.75-2.29,3.14-5.31,1.37-10.06,4.01-14.93,6.41-1.29.63-2.11,1.51-2.05,3.1.06,1.52-.19,3.04-.14,4.56.08,2.36.93,4.32,2.99,5.74,2.33,1.61,2.54,4.48.54,6.15-.57.48-1.38.66-2.06,1.02-1.72.92-3.46,1.82-5.15,2.79-1.84,1.06-3.84.98-5.72.49-1.26-.33-2.65-.89-3.2-2.44-.41-1.14-1.2-2.15-1.55-3.29-.5-1.63-.76-3.34-1.12-5.01.12-.02.23-.05.34-.07"/>
  <path class="st1" d="M124.46,28.54c2.29,0,4.58.05,6.86-.02,1.1-.04,1.95.3,2.66,1.08,1.52,1.67,3.06,3.33,4.56,5.03.25.29.39.71.49,1.09.65,2.57.78,5.15.54,7.81-.23,2.5-.05,5.04-.09,7.57,0,.85-.09,1.7-.21,2.54-.2,1.38-1.14,2.21-2.55,2.31-1.95.14-3.71-.51-5.41-1.37-5.71-2.88-11.34-5.91-17.14-8.58-3.56-1.64-6.39-4.26-9.6-6.36-.47-.3-.8-.88-1.07-1.4-.48-.88.19-1.88,1.3-2.37,1.5-.67,2.95-1.48,4.41-2.23.23-.12.42-.33.66-.4,1.86-.54,3.72-1.06,5.6-1.57,2.26-.61,4.54-1.1,6.45-2.67.56-.46,1.69-.23,2.56-.32v-.14"/>
  <path class="st1" d="M110.98,25.08c.62,2.62-1.06,4.43-2.52,6.1-.73.83-2.28,1.22-3.49,1.3-2.15.14-4.1-.7-5.79-2.07-.77-.63-1.54-1.27-2.32-1.89-1.47-1.16-3.74-1.1-5.63-.08-1.55.83-3.17,1.62-4.85,2.11-1.91.56-3.77.39-5.25-1.34-.79-.92-1.74-1.65-1.96-2.98-.22-1.31.3-3.09,1.68-3.73,1.72-.81,3.3-1.93,5.02-2.74.86-.41,1.94-.65,2.87-.55,1.95.22,3.73.13,5.27-1.24.16-.14.39-.32.57-.3,2.48.2,5.06-.97,7.44.18,1.7.82,3.39,1.27,5.24,1.43,1.91.17,4.03,2.61,3.73,4.45-.07.43,0,.89,0,1.33"/>
  <path class="st0" d="M107.92,158.89c-.84,1.63-1.44,3.26-2.44,4.61-.8,1.09-2.01,1.94-3.16,2.7-1.3.86-2.77,1.46-4.11,2.27-2.72,1.63-5.72,1.84-8.71,1.53-2.07-.22-4.12-.91-6.08-1.65-.98-.37-1.83-1.25-2.55-2.06-.43-.49-.52-1.34.31-1.78.55-.29,1.14-.52,1.73-.7,2.22-.67,4.44-1.32,6.67-1.94,1.7-.47,3.05-1.43,4.28-2.66.96-.97,1.97-1.93,3.08-2.71,1.9-1.33,3.89-1.02,5.86-.04,1.65.81,3.33,1.58,5.13,2.43"/>
  <path class="st1" d="M209.28,48.61c-.07.64-.19,1.27-.21,1.91-.03,1.19-.45,2.14-1.29,3.01-.55.57-.9,1.35-1.34,2.04-.3.48-.57.98-.89,1.45-.37.53-.76,1.06-1.18,1.55-.46.54-.91,1.12-1.46,1.56-1.84,1.48-2.66,3.61-3.65,5.62-.36.74-.62,1.56-.77,2.37-.46,2.37-1.78,4.34-2.82,6.45-.96,1.95-1.99,3.87-2.82,5.87-2.34,5.61-5.24,10.86-9.14,15.53-.86,1.04-1.63,2.14-2.43,3.22-1.22,1.65-1.55,3.56-1.55,5.56,0,3.13.04,6.25,0,9.38-.02,1.88-.08,3.76-.25,5.62-.06.65-.43,1.3-.77,1.88-2.35,3.98-5.29,7.51-8.62,10.67-3.35,3.18-6.79,6.29-10.37,9.21-1.75,1.42-3.82,2.58-5.91,3.44-4.84,1.99-9.51,1.5-13.73-1.74-1.24-.95-2.38-2.04-3.5-3.14-1.37-1.36-1.79-3.17-1.85-4.98-.08-2.24.07-4.5.26-6.74.2-2.31,1.38-4.28,2.62-6.15,1.5-2.27,2.85-4.61,3.92-7.12,1.51-3.5,3.62-6.67,5.44-10.01.85-1.56,1.51-3.22,2.34-4.79.84-1.6,1.66-3.24,2.74-4.67,1.07-1.4,1.7-2.92,2.18-4.57.52-1.77,1.1-3.52,1.67-5.27.87-2.66.67-5.39.55-8.12-.24-5.35-.44-10.73.81-15.97.43-1.81,1.57-3.49,2.59-5.1,1.12-1.74,2.49-3.31,3.73-4.97.24-.31.39-.69.59-1.03.18-.31.31-.72.58-.9,1.2-.75,2.41-1.5,3.67-2.13.9-.44,1.9-.68,2.85-1.02.27-.1.52-.33.79-.35,2.61-.15,4.62-1.83,6.93-2.75,2.12-.84,4.12-1.95,6.26-2.71,1.27-.45,2.7-.42,4.04-.69.57-.12,1.09-.5,1.64-.73.88-.35,1.76-.77,2.68-.97.94-.2,1.93-.21,2.91-.24,3.96-.14,7.07,1.78,10.04,4.08,1.52,1.18,2.47,2.63,2.51,4.61,0,.17.12.33.18.5v1.31l.03.02Z"/>
</svg>